<?xml version="1.0" encoding="utf-8"?>
<!-- Generator: Adobe Illustrator 25.4.0, SVG Export Plug-In . SVG Version: 6.00 Build 0)  -->
<svg version="1.1" id="Ebene_1" xmlns="http://www.w3.org/2000/svg" xmlns:xlink="http://www.w3.org/1999/xlink" x="0px" y="0px"
	 viewBox="0 0 300.6 300.6" style="enable-background:new 0 0 300.6 300.6;" xml:space="preserve">
<style type="text/css">
	.st0{fill:url(#SVGID_1_);}
	.st1{fill:url(#SVGID_00000139251450009555369210000009446302311067615162_);}
	.st2{fill:#7416A8;}
	.st3{fill:#2C5EFB;}
	.st4{fill:#2FAD4C;}
	.st5{fill:#FCE22B;}
	.st6{fill:#F87316;}
	.st7{fill:#F7022D;}
	.st8{clip-path:url(#SVGID_00000124132178714559181170000010007399708866366858_);}
	.st9{fill:#0F0F0F;}
	.st10{fill:#0E0E0E;}
	.st11{fill:#0D0D0D;}
	.st12{fill:#0C0C0C;}
	.st13{fill:#0B0B0B;}
	.st14{fill:#0A0A0A;}
	.st15{fill:#090909;}
	.st16{fill:#080808;}
	.st17{fill:#070707;}
	.st18{fill:#060606;}
	.st19{fill:#050505;}
	.st20{fill:#040404;}
	.st21{fill:#030303;}
	.st22{fill:#020202;}
	.st23{fill:#010101;}
	.st24{clip-path:url(#SVGID_00000146474645251973747720000002306508905584530862_);}
	.st25{fill:#151515;}
	.st26{fill:#161616;}
	.st27{fill:#141414;}
	.st28{fill:#131313;}
	.st29{fill:#121212;}
	.st30{fill:#111111;}
	.st31{clip-path:url(#SVGID_00000070836074055111547620000006380813306518181785_);}
	.st32{clip-path:url(#SVGID_00000092439222954704909350000012802180149215779478_);}
	.st33{clip-path:url(#SVGID_00000136398043554228641680000000862444093238494140_);}
	.st34{fill:#101010;}
	.st35{clip-path:url(#SVGID_00000107574123420699379350000014382532569749710490_);}
	.st36{clip-path:url(#SVGID_00000155862164751551747120000007805732045301952148_);}
	.st37{clip-path:url(#SVGID_00000152979794302298652970000014748006754350795677_);}
	.st38{clip-path:url(#SVGID_00000031192102799386338550000001820783105537850792_);}
	.st39{clip-path:url(#SVGID_00000144325956866982796760000015908774782276349605_);}
	.st40{clip-path:url(#SVGID_00000008112633295055066690000011903757761908540862_);}
	.st41{clip-path:url(#SVGID_00000092429782581085560620000001484260670344061350_);}
	.st42{clip-path:url(#SVGID_00000078743541457344868490000010366699755909420192_);}
	.st43{clip-path:url(#SVGID_00000029763098074335554570000008185991759462695600_);}
	.st44{clip-path:url(#SVGID_00000026132013675501500310000015996899472719161994_);}
	.st45{clip-path:url(#SVGID_00000024709582538245195560000009889773425141103245_);}
	.st46{clip-path:url(#SVGID_00000044174781325571315620000000178586995139527076_);}
	.st47{fill:#FFFFFF;stroke:#1D1D1B;stroke-width:0.1473;stroke-miterlimit:10;}
</style>
<g>
	
		<linearGradient id="SVGID_1_" gradientUnits="userSpaceOnUse" x1="4.0211" y1="292.3589" x2="4.0211" y2="-0.4212" gradientTransform="matrix(1 0 0 -1 0 298.5071)">
		<stop  offset="0" style="stop-color:#BD111F"/>
		<stop  offset="0.2" style="stop-color:#F29000"/>
		<stop  offset="0.4" style="stop-color:#FCE902"/>
		<stop  offset="0.6" style="stop-color:#35A833"/>
		<stop  offset="0.8" style="stop-color:#009DE2"/>
		<stop  offset="1" style="stop-color:#931680"/>
	</linearGradient>
	<path class="st0" d="M4.1,144.5c-0.2,2.7-0.2,5.3-0.2,8s0.1,5.4,0.2,8V153V144.5z"/>
	
		<linearGradient id="SVGID_00000075858662033475774270000009024059045283944890_" gradientUnits="userSpaceOnUse" x1="150.3368" y1="292.3589" x2="150.3368" y2="-0.4212" gradientTransform="matrix(1 0 0 -1 0 298.5071)">
		<stop  offset="0" style="stop-color:#BD111F"/>
		<stop  offset="0.2" style="stop-color:#F29000"/>
		<stop  offset="0.4" style="stop-color:#FCE902"/>
		<stop  offset="0.6" style="stop-color:#35A833"/>
		<stop  offset="0.8" style="stop-color:#009DE2"/>
		<stop  offset="1" style="stop-color:#931680"/>
	</linearGradient>
	<path style="fill:url(#SVGID_00000075858662033475774270000009024059045283944890_);" d="M150.3,6.1c-4.4,0-8.6,0.2-12.9,0.6h25.8
		C159,6.4,154.7,6.1,150.3,6.1z"/>
	<path class="st2" d="M150.3,298.9c43.2,0,82-18.7,108.8-48.4H41.5C68.3,280.2,107.2,298.9,150.3,298.9z"/>
	<path class="st3" d="M41.5,250.5h217.5c12.7-14.1,22.7-30.6,29.2-48.8H12.4C18.9,219.9,28.9,236.4,41.5,250.5z"/>
	<path class="st4" d="M288.2,201.7c5.4-15.3,8.4-31.6,8.5-48.8H4.1v7.6c0.8,14.4,3.6,28.2,8.3,41.2H288.2z"/>
	<path class="st5" d="M296.7,153v-0.5C296.7,152.7,296.7,152.8,296.7,153L296.7,153z"/>
	<path class="st5" d="M12.1,104.2c-4.5,12.7-7.2,26.2-8,40.3v8.5h292.6c0-0.2,0-0.3,0-0.5c0-17-2.9-33.2-8.1-48.3L12.1,104.2
		L12.1,104.2z"/>
	<path class="st6" d="M12.1,104.2h276.5c-6.3-18.1-16.2-34.6-28.7-48.8H40.8C28.3,69.5,18.4,86.1,12.1,104.2z"/>
	<path class="st7" d="M40.8,55.5h219.2C235.7,28.2,201.6,10,163.2,6.7h-25.8C99,10,64.9,28.2,40.8,55.5z"/>
</g>
<g>
	<g>
		<g>
			<defs>
				<path id="SVGID_00000155111549137722432510000000057454555674508937_" d="M196.5,137.9c1.6-3.8,2.2-7.5,2-11.3
					c-0.3-4.5-0.8-8.1-1.7-11.1c-1.7-6-5-12.8-10-20.8s-12.1-16.4-21.5-24.8c-10.5-9.5-21.3-16.5-31.7-19.7
					c-8.9-2.7-18.1-4.1-27.4-4.2c-2.3,0-4.7,0.1-7.1,0.3c-2.4,0.2-4.9,0.6-7.3,1c-2.4,0.5-4.7,1-7,1.5l18.1-44.3
					c2.3-0.5,4.6-1,7-1.5c2.4-0.5,4.8-0.8,7.3-1c2.4-0.2,4.7-0.3,7.1-0.3c9.3,0,18.5,1.5,27.4,4.2c10.5,3.2,21.2,10.1,31.7,19.7
					c9.4,8.4,16.5,16.8,21.5,24.8s8.2,14.9,10,20.8c0.9,3,1.4,6.7,1.7,11.1c0.2,3.8-0.4,7.5-2,11.3
					C209.1,106.9,201.9,124.6,196.5,137.9z"/>
			</defs>
			<clipPath id="SVGID_00000051364954203585270760000000736345121603538876_">
				<use xlink:href="#SVGID_00000155111549137722432510000000057454555674508937_"  style="overflow:visible;"/>
			</clipPath>
			<g style="clip-path:url(#SVGID_00000051364954203585270760000000736345121603538876_);">
				<g>
					<path class="st9" d="M102.9,4.5L84.8,48.8c2.3-0.5,4.6-1,7-1.5l0.3-0.1L110.2,3L109.9,3C107.5,3.5,105.2,4,102.9,4.5"/>
					<path class="st10" d="M110.2,3L92.1,47.3c0.9-0.2,1.7-0.3,2.6-0.5l18.1-44.3C111.9,2.6,111.1,2.8,110.2,3"/>
					<path class="st11" d="M112.8,2.5L94.7,46.8c0.8-0.1,1.7-0.2,2.5-0.3l18.1-44.3C114.5,2.3,113.6,2.4,112.8,2.5"/>
					<path class="st12" d="M115.3,2.2l-18,44.3c0.6-0.1,1.2-0.1,1.8-0.2l0.7-0.1l18-44.3L117.2,2C116.5,2,115.9,2.1,115.3,2.2"/>
					<path class="st13" d="M117.9,1.9L99.8,46.2c1-0.1,2-0.1,3.1-0.2L121,1.8C119.9,1.8,118.9,1.9,117.9,1.9"/>
					<path class="st13" d="M121,1.8l-18.1,44.3c1,0,2.1-0.1,3.1-0.1L124,1.7C123,1.7,122,1.7,121,1.8"/>
					<path class="st14" d="M124,1.7L106,46h0.2c1,0,2,0,2.9,0.1l18.1-44.3c-1,0-2-0.1-2.9-0.1L124,1.7"/>
					<path class="st15" d="M127.2,1.7l-18.1,44.3c1.1,0,2.1,0.1,3.2,0.2l18.1-44.3C129.3,1.8,128.2,1.8,127.2,1.7"/>
					<path class="st16" d="M130.3,1.9l-18.1,44.3c1.1,0.1,2.2,0.2,3.3,0.3l18.1-44.3C132.5,2.1,131.4,2,130.3,1.9"/>
					<path class="st17" d="M133.6,2.2l-18.1,44.3c1.1,0.1,2.3,0.3,3.4,0.4l18.1-44.3C135.9,2.5,134.8,2.3,133.6,2.2"/>
					<path class="st18" d="M137.1,2.6L119,46.9c1.2,0.2,2.4,0.4,3.6,0.6l18.1-44.3C139.5,3,138.3,2.8,137.1,2.6"/>
					<path class="st19" d="M140.7,3.2l-18.1,44.3c1.3,0.2,2.6,0.5,3.9,0.8L144.6,4C143.3,3.7,142,3.5,140.7,3.2"/>
					<path class="st20" d="M144.6,4l-18.1,44.3c1.5,0.3,2.9,0.7,4.3,1.1l18.1-44.3C147.5,4.7,146,4.3,144.6,4"/>
					<path class="st21" d="M148.9,5.1l-18.1,44.3c0.9,0.3,1.8,0.5,2.7,0.8l1.2,0.4l18.1-44.3c-0.4-0.1-0.8-0.3-1.2-0.4
						C150.7,5.6,149.8,5.3,148.9,5.1"/>
					<path class="st22" d="M152.8,6.3l-18.1,44.3c1.1,0.4,2.3,0.8,3.4,1.2l18.1-44.3C155.1,7,153.9,6.6,152.8,6.3"/>
					<path class="st23" d="M156.2,7.5l-18.1,44.3c9,3.6,18.2,9.9,27.2,18c9.4,8.4,16.5,16.8,21.5,24.8s8.2,14.9,10,20.8
						c0.9,3,1.4,6.7,1.7,11.1c0.2,3.8-0.4,7.5-2,11.3l18.1-44.3c1.6-3.8,2.2-7.5,2-11.3c-0.3-4.5-0.8-8.1-1.7-11.1
						c-1.7-6-5-12.8-10-20.8s-12.1-16.4-21.5-24.8C174.4,17.4,165.2,11.1,156.2,7.5"/>
				</g>
			</g>
		</g>
	</g>
	<g>
		<g>
			<defs>
				<path id="SVGID_00000089576570806033061540000005943646353738165386_" d="M57.2,40.2C63.2,25.6,74.9,15.3,90,9.3
					c2.1-0.8,4.2-1.6,6.4-2.4c2.2-0.8,4.4-1.6,6.6-2.3L84.8,48.8c-2.2,0.8-4.4,1.5-6.6,2.3c-2.2,0.8-4.3,1.6-6.4,2.4
					c-15.1,6.1-26.8,16.3-32.7,30.9C44.6,71.2,51.8,53.5,57.2,40.2z"/>
			</defs>
			<clipPath id="SVGID_00000078744306895729771430000015871500738538856878_">
				<use xlink:href="#SVGID_00000089576570806033061540000005943646353738165386_"  style="overflow:visible;"/>
			</clipPath>
			<g style="clip-path:url(#SVGID_00000078744306895729771430000015871500738538856878_);">
				<g>
					<path class="st25" d="M57.2,40.2L39.1,84.5c0.1-0.1,0.1-0.3,0.2-0.4l18.1-44.3C57.3,39.9,57.3,40,57.2,40.2"/>
					<path class="st26" d="M57.4,39.7L39.3,84c3.7-8.9,9.6-16.1,17-21.7L74.4,18C66.9,23.6,61.1,30.9,57.4,39.7"/>
					<path class="st25" d="M74.4,18L56.3,62.3c1.8-1.4,3.7-2.6,5.6-3.8L80,14.2C78.1,15.3,76.2,16.6,74.4,18"/>
					<path class="st27" d="M80,14.2L61.9,58.5c1.5-0.9,3.1-1.8,4.8-2.6l18.1-44.3C83.1,12.4,81.5,13.3,80,14.2"/>
					<path class="st28" d="M84.8,11.6L66.7,55.9c1.4-0.7,2.9-1.4,4.4-2L89.2,9.6C87.7,10.2,86.2,10.9,84.8,11.6"/>
					<path class="st29" d="M89.2,9.6L71.1,53.9c0.3-0.1,0.5-0.2,0.8-0.3c2.1-0.8,4.2-1.6,6.4-2.4c1.2-0.5,2.5-0.9,3.8-1.3l18.1-44.3
						c-1.3,0.4-2.5,0.9-3.8,1.3C94.2,7.6,92,8.4,90,9.3L89.2,9.6"/>
					<path class="st30" d="M100.1,5.5L82,49.8c0.9-0.3,1.9-0.6,2.8-1l18.1-44.3C102,4.8,101,5.2,100.1,5.5"/>
				</g>
			</g>
		</g>
	</g>
	<g>
		<g>
			<defs>
				<path id="SVGID_00000092430313423749773480000003804084043099137692_" d="M39.1,84.5l18.1-44.3c-0.5,1.3-1,2.6-1.4,4L37.7,88.5
					C38.1,87.1,38.6,85.8,39.1,84.5z"/>
			</defs>
			<clipPath id="SVGID_00000183227382048542320080000005742526391043497610_">
				<use xlink:href="#SVGID_00000092430313423749773480000003804084043099137692_"  style="overflow:visible;"/>
			</clipPath>
			<g style="clip-path:url(#SVGID_00000183227382048542320080000005742526391043497610_);">
				<g>
					<path class="st23" d="M55.8,44.1L37.7,88.5c0.4-1.4,0.9-2.7,1.4-4l18.1-44.3C56.7,41.5,56.2,42.8,55.8,44.1"/>
				</g>
			</g>
		</g>
	</g>
	<g>
		<g>
			<defs>
				<path id="SVGID_00000163762962080368854200000016461581262811086769_" d="M57.7,44.7c-0.4,0.9-0.7,1.8-1,2.7L38.6,91.8
					c0.3-0.9,0.7-1.8,1-2.7L57.7,44.7z"/>
			</defs>
			<clipPath id="SVGID_00000054987165622488404280000014585024789215309498_">
				<use xlink:href="#SVGID_00000163762962080368854200000016461581262811086769_"  style="overflow:visible;"/>
			</clipPath>
			<g style="clip-path:url(#SVGID_00000054987165622488404280000014585024789215309498_);">
				<g>
					<path class="st23" d="M57.7,44.7L39.7,89.1c-0.4,0.9-0.7,1.8-1,2.7l18.1-44.3C57,46.5,57.4,45.6,57.7,44.7"/>
				</g>
			</g>
		</g>
	</g>
	<g>
		<g>
			<defs>
				<path id="SVGID_00000035494263905216308080000009007407995489745059_" d="M182.8,102.8l-18.1,44.3c1.4-3.5,2.1-7.8,2.1-13
					c0-6.7-1.5-15.1-4.5-25.5c-3.4-11.7-7.6-21.4-12.6-29.1c-5-7.7-10.5-13.8-16.4-18.2s-11.8-7.3-17.9-8.6
					c-4.1-0.9-8.3-1.4-12.5-1.5c-1.6,0-3.1,0.1-4.6,0.2c-3.7,0.4-7.3,1-10.9,1.8c-3,0.7-5.9,1.7-8.6,3.1L96.9,12
					c2.7-1.4,5.6-2.4,8.6-3.1c3.6-0.8,7.2-1.4,10.9-1.8c1.5-0.2,3.1-0.2,4.6-0.2c4.2,0,8.4,0.5,12.5,1.5c6.1,1.4,12.1,4.3,17.9,8.7
					s11.3,10.5,16.4,18.2c5,7.7,9.2,17.4,12.6,29.1c3,10.4,4.5,18.8,4.5,25.5C184.9,94.9,184.2,99.3,182.8,102.8z"/>
			</defs>
			<clipPath id="SVGID_00000171683261687615645850000009481695034343328698_">
				<use xlink:href="#SVGID_00000035494263905216308080000009007407995489745059_"  style="overflow:visible;"/>
			</clipPath>
			<g style="clip-path:url(#SVGID_00000171683261687615645850000009481695034343328698_);">
				<g>
					<path class="st23" d="M182.8,102.8l-18.1,44.3c1.4-3.5,2.1-7.8,2.1-13c0-6.7-1.5-15.1-4.5-25.5c-3.4-11.7-7.6-21.4-12.6-29.1
						c-5-7.7-10.5-13.8-16.4-18.2c-3.6-2.7-7.6-5-11.8-6.7l18.1-44.3c4.2,1.7,8.1,4,11.8,6.7c5.8,4.3,11.3,10.5,16.4,18.2
						c5,7.7,9.2,17.4,12.6,29.1c3,10.4,4.5,18.8,4.5,25.5C184.9,94.9,184.2,99.3,182.8,102.8"/>
					<path class="st22" d="M139.7,10.2l-18.1,44.3c-0.8-0.3-1.7-0.6-2.5-0.9l18.1-44.3C138,9.6,138.8,9.9,139.7,10.2"/>
					<path class="st21" d="M137.2,9.3l-18.1,44.3c-0.6-0.2-1.3-0.4-1.9-0.6l18.1-44.3C135.9,8.9,136.5,9.1,137.2,9.3"/>
					<path class="st20" d="M135.2,8.8l-18.1,44.3c-0.5-0.1-1.1-0.3-1.6-0.4l18.1-44.3C134.2,8.5,134.7,8.6,135.2,8.8"/>
					<path class="st19" d="M133.6,8.3l-18.1,44.3l-0.1,0c-0.8-0.2-1.6-0.4-2.5-0.5l18.1-44.3c0.8,0.2,1.6,0.3,2.5,0.5L133.6,8.3"/>
					<path class="st18" d="M131.1,7.8L113,52.1c-0.8-0.1-1.6-0.3-2.4-0.4l18.1-44.3C129.5,7.5,130.3,7.7,131.1,7.8"/>
					<path class="st17" d="M128.7,7.4l-18.1,44.3c-0.7-0.1-1.4-0.2-2.2-0.3l18.1-44.3C127.3,7.2,128,7.3,128.7,7.4"/>
					<path class="st16" d="M126.6,7.2l-18.1,44.3c-0.7-0.1-1.3-0.1-2-0.2L124.6,7C125.2,7,125.9,7.1,126.6,7.2"/>
					<path class="st15" d="M124.6,7l-18.1,44.3c-0.6,0-1.3-0.1-1.9-0.1l18.1-44.3C123.3,6.9,123.9,6.9,124.6,7"/>
					<path class="st14" d="M122.7,6.9l-18.1,44.3c-0.6,0-1.1,0-1.7,0h-0.1l18.1-44.3h0.1C121.6,6.9,122.1,6.9,122.7,6.9"/>
					<path class="st13" d="M120.9,6.9l-18.1,44.3c-0.6,0-1.2,0-1.7,0l18.1-44.3C119.7,6.9,120.3,6.9,120.9,6.9"/>
					<path class="st13" d="M119.2,6.9l-18.1,44.3c-0.6,0-1.1,0.1-1.7,0.1L117.5,7C118,6.9,118.6,6.9,119.2,6.9"/>
					<path class="st12" d="M117.5,7L99.4,51.3c-0.4,0-0.7,0.1-1.1,0.1s-0.8,0.1-1.2,0.1l18.1-44.3c0.4,0,0.8-0.1,1.2-0.1
						C116.8,7.1,117.1,7,117.5,7"/>
					<path class="st11" d="M115.2,7.2L97.2,51.5c-1.1,0.1-2.2,0.3-3.3,0.4l18.1-44.3C113,7.5,114.1,7.3,115.2,7.2"/>
					<path class="st10" d="M111.9,7.6L93.9,52c-1.1,0.2-2.2,0.4-3.3,0.6l18.1-44.3C109.7,8,110.8,7.8,111.9,7.6"/>
					<path class="st9" d="M108.6,8.2L90.5,52.6c-1,0.2-2.1,0.4-3.1,0.7l-0.1,0l18.1-44.3l0.1,0C106.6,8.7,107.6,8.4,108.6,8.2"/>
					<path class="st34" d="M105.4,8.9L87.4,53.2c-0.7,0.2-1.5,0.4-2.2,0.6l18.1-44.3C104,9.3,104.7,9.1,105.4,8.9"/>
					<path class="st30" d="M103.3,9.5L85.2,53.8c-0.7,0.2-1.4,0.4-2,0.7l18.1-44.3C101.9,9.9,102.6,9.7,103.3,9.5"/>
					<path class="st29" d="M101.3,10.1L83.2,54.5c-0.7,0.2-1.3,0.5-1.9,0.7l18.1-44.3C99.9,10.6,100.6,10.4,101.3,10.1"/>
					<path class="st28" d="M99.3,10.9L81.2,55.2c-0.7,0.3-1.3,0.6-1.9,0.8l18.1-44.3C98,11.4,98.7,11.2,99.3,10.9"/>
					<path class="st27" d="M97.4,11.7L79.4,56.1l-0.5,0.3L96.9,12L97.4,11.7"/>
				</g>
			</g>
		</g>
	</g>
	<g>
		<g>
			<defs>
				<path id="SVGID_00000115487837953128455470000005988338754968515209_" d="M164.7,147.1c-0.4,1-0.9,1.9-1.4,2.8
					c-2.4,3.9-5.8,6.7-10.3,8.2c-4.5,1.6-9.7,2.4-15.7,2.4l18.1-44.3c5.9,0,11.2-0.8,15.7-2.4c4.5-1.6,7.9-4.3,10.3-8.2
					c0.5-0.9,1-1.8,1.4-2.8L164.7,147.1z"/>
			</defs>
			<clipPath id="SVGID_00000027592453722277547800000003340487274112104379_">
				<use xlink:href="#SVGID_00000115487837953128455470000005988338754968515209_"  style="overflow:visible;"/>
			</clipPath>
			<g style="clip-path:url(#SVGID_00000027592453722277547800000003340487274112104379_);">
				<g>
					<path class="st13" d="M155.4,116.3l-18.1,44.3c0.8,0,1.5,0,2.3,0l18.1-44.3C156.9,116.3,156.1,116.3,155.4,116.3"/>
					<path class="st13" d="M157.6,116.2l-18.1,44.3c0.7,0,1.5-0.1,2.2-0.1l18.1-44.3C159.1,116.2,158.4,116.2,157.6,116.2"/>
					<path class="st12" d="M159.8,116.1l-18.1,44.3c0.7-0.1,1.4-0.1,2-0.2l18.1-44.3C161.2,116,160.5,116,159.8,116.1"/>
					<path class="st11" d="M161.8,115.9l-18.1,44.3c0.7-0.1,1.3-0.2,1.9-0.3l18.1-44.3C163.1,115.7,162.5,115.8,161.8,115.9"/>
					<path class="st10" d="M163.8,115.6L145.7,160c0.6-0.1,1.2-0.2,1.9-0.3l18.1-44.3C165,115.4,164.4,115.6,163.8,115.6"/>
					<path class="st9" d="M165.6,115.3l-18.1,44.3c0.6-0.1,1.2-0.3,1.8-0.4l18.1-44.3C166.8,115.1,166.2,115.2,165.6,115.3"/>
					<path class="st34" d="M167.4,114.9l-18.1,44.3c0.6-0.1,1.2-0.3,1.8-0.5l18.1-44.3C168.6,114.6,168,114.8,167.4,114.9"/>
					<path class="st30" d="M169.2,114.5l-18.1,44.3c0.6-0.2,1.2-0.4,1.8-0.6l18.1-44.3C170.4,114.1,169.8,114.3,169.2,114.5"/>
					<path class="st29" d="M170.9,113.9l-18.1,44.3l0.1,0c0.4-0.1,0.8-0.3,1.1-0.4l18.1-44.3c-0.4,0.2-0.7,0.3-1.1,0.4L170.9,113.9"
						/>
					<path class="st28" d="M172.2,113.4l-18.1,44.3c0.4-0.2,0.9-0.4,1.3-0.6l18.1-44.3C173,113.1,172.6,113.2,172.2,113.4"/>
					<path class="st27" d="M173.4,112.9l-18.1,44.3c0.5-0.2,1-0.5,1.4-0.8l18.1-44.3C174.4,112.4,173.9,112.6,173.4,112.9"/>
					<path class="st25" d="M174.9,112.1l-18.1,44.3c0.6-0.4,1.2-0.8,1.7-1.2l18.1-44.3C176,111.3,175.5,111.7,174.9,112.1"/>
					<path class="st26" d="M176.6,110.9l-18.1,44.3c1.9-1.5,3.5-3.3,4.8-5.3c0.5-0.8,1-1.7,1.3-2.7l18.1-44.3
						c-0.4,0.9-0.8,1.8-1.3,2.7C180.1,107.7,178.5,109.5,176.6,110.9"/>
					<path class="st25" d="M182.7,102.9l-18.1,44.3l0.1-0.2l18.1-44.3C182.7,102.8,182.7,102.9,182.7,102.9"/>
				</g>
			</g>
		</g>
	</g>
	<path d="M213.6,95.7c-0.3,0.5-0.6,1.1-0.9,1.6c-0.1,0.2-0.2,0.3-0.3,0.5c-0.2,0.4-0.4,0.7-0.7,1.1c-0.1,0.2-0.3,0.4-0.4,0.6
		c-0.2,0.3-0.5,0.6-0.7,1c-0.2,0.2-0.3,0.4-0.5,0.6c-0.3,0.3-0.5,0.6-0.8,0.9c-0.2,0.2-0.4,0.4-0.6,0.6c-0.3,0.3-0.6,0.6-0.9,0.9
		c-0.2,0.2-0.4,0.4-0.6,0.6c-0.4,0.3-0.8,0.7-1.2,1c-0.2,0.2-0.3,0.3-0.5,0.5c-0.6,0.5-1.2,1-1.8,1.5c-0.7,0.5-1.4,1-2.2,1.6
		c-0.6,0.4-1.3,0.9-2,1.3c-0.4,0.2-0.9,0.5-1.3,0.7c-0.4,0.2-0.9,0.5-1.3,0.7c-0.4,0.2-0.8,0.4-1.2,0.5c-0.5,0.2-1.1,0.5-1.6,0.7
		c-0.4,0.2-0.8,0.3-1.2,0.5c-0.6,0.2-1.2,0.4-1.8,0.6c-0.4,0.1-0.9,0.3-1.3,0.4c-0.6,0.2-1.3,0.4-1.9,0.6c-0.5,0.1-1,0.3-1.5,0.4
		c-0.7,0.2-1.4,0.3-2.1,0.5c-0.6,0.1-1.1,0.3-1.7,0.4c-0.7,0.1-1.4,0.3-2.1,0.4c-0.7,0.1-1.3,0.2-2,0.4c-1.2,0.2-2.5,0.4-3.8,0.5
		l-18.1,44.3c1.1-0.1,2.2-0.3,3.2-0.5c0.2,0,0.4-0.1,0.5-0.1c0.7-0.1,1.4-0.2,2-0.4c0.5-0.1,1-0.2,1.5-0.3c0.2,0,0.4-0.1,0.6-0.1
		c0.6-0.1,1.1-0.2,1.7-0.4c0.5-0.1,1-0.2,1.4-0.3c0.2-0.1,0.4-0.1,0.6-0.2c0.5-0.1,1-0.3,1.5-0.4c0.4-0.1,0.8-0.2,1.2-0.3
		c0.3-0.1,0.5-0.2,0.8-0.2c0.5-0.1,0.9-0.3,1.3-0.4c0.3-0.1,0.6-0.2,0.9-0.3s0.6-0.2,0.9-0.4c0.4-0.2,0.8-0.3,1.2-0.5
		c0.2-0.1,0.4-0.2,0.6-0.2c0.4-0.1,0.7-0.3,1-0.5c0.4-0.2,0.8-0.4,1.2-0.5c0.1-0.1,0.3-0.1,0.4-0.2c0.3-0.2,0.6-0.3,0.9-0.5
		c0.4-0.2,0.9-0.5,1.3-0.7c0.1-0.1,0.3-0.1,0.4-0.2c0.6-0.3,1.1-0.7,1.7-1.1c0.7-0.5,1.5-1,2.2-1.6l0,0c0.6-0.5,1.2-1,1.8-1.4
		c0.2-0.2,0.3-0.3,0.5-0.5c0.4-0.3,0.8-0.7,1.2-1c0.2-0.2,0.4-0.4,0.6-0.6c0.3-0.3,0.6-0.6,0.9-0.9c0.2-0.2,0.4-0.4,0.6-0.6
		c0.3-0.3,0.6-0.6,0.8-0.9c0.2-0.2,0.3-0.4,0.5-0.6c0.3-0.3,0.5-0.6,0.7-1c0.1-0.2,0.3-0.4,0.4-0.6c0.2-0.4,0.5-0.7,0.7-1.1
		c0.1-0.2,0.2-0.3,0.3-0.5c0.3-0.5,0.6-1.1,0.9-1.6c0.3-0.6,0.6-1.2,0.8-1.8c0-0.1,0.1-0.2,0.1-0.3l18.1-44.3
		C214.2,94.3,213.9,95,213.6,95.7z"/>
	<g>
		<g>
			<defs>
				<path id="SVGID_00000072966399897824678750000008791482284586600363_" d="M126.9,116.7c9-0.3,18.6-0.4,28.4-0.4l-18.1,44.3
					c-9.8,0-19.4,0.2-28.4,0.4L126.9,116.7z"/>
			</defs>
			<clipPath id="SVGID_00000081625332219229303690000005947087996883577273_">
				<use xlink:href="#SVGID_00000072966399897824678750000008791482284586600363_"  style="overflow:visible;"/>
			</clipPath>
			<g style="clip-path:url(#SVGID_00000081625332219229303690000005947087996883577273_);">
				<g>
					<path class="st13" d="M126.9,116.7L108.9,161c9-0.3,18.6-0.4,28.4-0.4l18.1-44.3C145.6,116.3,136,116.5,126.9,116.7"/>
				</g>
			</g>
		</g>
	</g>
	<g>
		<g>
			<defs>
				<polygon id="SVGID_00000152264040194673620770000010938185727301148589_" points="96.9,12 126.9,116.7 108.9,161 78.8,56.3 				
					"/>
			</defs>
			<clipPath id="SVGID_00000031165149732968658370000010332920892455556537_">
				<use xlink:href="#SVGID_00000152264040194673620770000010938185727301148589_"  style="overflow:visible;"/>
			</clipPath>
			<g style="clip-path:url(#SVGID_00000031165149732968658370000010332920892455556537_);">
				<g>
					<path class="st23" d="M96.9,12L78.8,56.3L108.9,161l18.1-44.3L96.9,12"/>
				</g>
			</g>
		</g>
	</g>
	<g>
		<g>
			<defs>
				<path id="SVGID_00000013164406625586181110000010949061349346395835_" d="M283,196c0.5,0,1,0,1.5-0.1l-18.1,44.3
					c-0.5,0.1-1,0.1-1.5,0.1L283,196z"/>
			</defs>
			<clipPath id="SVGID_00000047753138123563782960000008436003431416701060_">
				<use xlink:href="#SVGID_00000013164406625586181110000010949061349346395835_"  style="overflow:visible;"/>
			</clipPath>
			<g style="clip-path:url(#SVGID_00000047753138123563782960000008436003431416701060_);">
				<g>
					<path class="st14" d="M283,196l-18.1,44.3h0L283,196L283,196"/>
					<path class="st13" d="M283,196l-18.1,44.3c0.2,0,0.3,0,0.5,0l18.1-44.3C283.3,196,283.2,196,283,196"/>
					<path class="st13" d="M283.4,196l-18.1,44.3l0.4,0l18.1-44.3C283.7,195.9,283.6,196,283.4,196"/>
					<path class="st12" d="M283.8,195.9l-18.1,44.3c0.1,0,0.2,0,0.4,0l18.1-44.3C284.1,195.9,284,195.9,283.8,195.9"/>
					<path class="st11" d="M284.2,195.9l-18.1,44.3l0.2,0l18.1-44.3C284.3,195.9,284.3,195.9,284.2,195.9"/>
				</g>
			</g>
		</g>
	</g>
	<g>
		<g>
			<defs>
				<path id="SVGID_00000134215923118566767810000001506829654859385514_" d="M262.4,258.2c0.9-2.3,1.7-4.6,2.3-7
					c0.5-2,0.9-4.1,1.2-6.2c0.2-1.8,0.4-3.4,0.5-4.8l18.1-44.3c-0.1,1.4-0.3,3-0.5,4.8c-0.3,2.1-0.7,4.1-1.2,6.2
					c-0.6,2.4-1.3,4.7-2.3,7L262.4,258.2z"/>
			</defs>
			<clipPath id="SVGID_00000158750541893474606180000013915063197309584800_">
				<use xlink:href="#SVGID_00000134215923118566767810000001506829654859385514_"  style="overflow:visible;"/>
			</clipPath>
			<g style="clip-path:url(#SVGID_00000158750541893474606180000013915063197309584800_);">
				<g>
					<path class="st23" d="M284.4,195.9l-18.1,44.3c-0.1,1.4-0.3,3-0.5,4.8c-0.3,2.1-0.7,4.1-1.2,6.2c-0.6,2.4-1.4,4.7-2.3,7
						l18.1-44.3c0.9-2.3,1.7-4.6,2.3-7c0.5-2,0.9-4.1,1.2-6.2C284.1,198.9,284.3,197.3,284.4,195.9"/>
				</g>
			</g>
		</g>
	</g>
	<g>
		<g>
			<defs>
				<path id="SVGID_00000069387464189964828990000007213528058475230348_" d="M279.9,209.5l-18.1,44.3c0.5-1.3,0.9-2.5,1.3-3.8
					c0.9-3.2,1.5-6.4,1.7-9.7L283,196c-0.2,3.3-0.8,6.5-1.7,9.7C280.9,207,280.5,208.3,279.9,209.5z"/>
			</defs>
			<clipPath id="SVGID_00000113329588509867694700000011076567762103727284_">
				<use xlink:href="#SVGID_00000069387464189964828990000007213528058475230348_"  style="overflow:visible;"/>
			</clipPath>
			<g style="clip-path:url(#SVGID_00000113329588509867694700000011076567762103727284_);">
				<g>
					<path class="st23" d="M279.9,209.5l-18.1,44.3c0.5-1.3,0.9-2.5,1.3-3.8c0.9-3.2,1.5-6.4,1.7-9.7L283,196
						c-0.2,3.3-0.8,6.5-1.7,9.7C280.9,207,280.5,208.3,279.9,209.5"/>
				</g>
			</g>
		</g>
	</g>
	<g>
		<g>
			<defs>
				<path id="SVGID_00000045587068771923017280000003967966184741783464_" d="M261.9,253.9c-0.5,1.3-1.2,2.6-1.9,3.8
					c-1.9,3-3.9,4.5-5.8,4.5c-1,0-2-0.4-2.8-1.1c-2.7-2.2-5.3-5.5-7.5-9.8c-1.5-2.8-3-6.5-4.6-11.2c-1.6-4.7-3.2-9.5-5-14.6
					s-3.5-10-5.3-14.8c-1.6-4.4-3.6-8.7-5.9-12.8c-3.6-6.4-8.2-11.6-13.9-15.8c-5.8-4.3-12-7.9-18.5-10.8
					c-6.6-2.9-13.1-5.1-19.3-6.4c-6.2-1.3-11.1-2.3-14.7-2.8l18.1-44.3c3.6,0.5,8.5,1.4,14.7,2.8s12.7,3.5,19.3,6.4
					c6.6,2.9,12.8,6.5,18.5,10.8c5.7,4.2,10.3,9.5,13.9,15.8c2.3,4.1,4.3,8.4,5.9,12.8c1.8,4.8,3.6,9.7,5.3,14.8s3.4,9.9,5,14.6
					c1.6,4.6,3.1,8.4,4.6,11.2c2.3,4.3,4.8,7.7,7.5,9.8c0.8,0.7,1.8,1.1,2.8,1.1c1.9,0,3.9-1.5,5.8-4.5c0.7-1.2,1.4-2.5,1.9-3.8
					L261.9,253.9z"/>
			</defs>
			<clipPath id="SVGID_00000181772710528052735030000001734768207774554768_">
				<use xlink:href="#SVGID_00000045587068771923017280000003967966184741783464_"  style="overflow:visible;"/>
			</clipPath>
			<g style="clip-path:url(#SVGID_00000181772710528052735030000001734768207774554768_);">
				<g>
					<path class="st17" d="M174.7,117.7l-18.1,44.3l0.2,0l18.1-44.3L174.7,117.7"/>
					<path class="st18" d="M175,117.8l-18.1,44.3c1.5,0.2,3.2,0.5,5.2,0.9l18.1-44.3C178.2,118.3,176.5,118,175,117.8"/>
					<path class="st19" d="M180.2,118.6L162.1,163c2.7,0.5,5.8,1.1,9.3,1.9l0.7,0.2l18.1-44.3l-0.7-0.1
						C185.9,119.8,182.8,119.1,180.2,118.6"/>
					<path class="st20" d="M190.1,120.7L172,165c1.2,0.3,2.4,0.6,3.7,0.9l18.1-44.3C192.5,121.2,191.3,120.9,190.1,120.7"/>
					<path class="st21" d="M193.8,121.6l-18.1,44.3c1.5,0.4,3.1,0.9,4.7,1.4l18.1-44.3C196.8,122.5,195.3,122,193.8,121.6"/>
					<path class="st22" d="M198.4,123l-18.1,44.3c2.2,0.7,4.5,1.6,6.7,2.5l18.1-44.3C202.9,124.5,200.7,123.7,198.4,123"/>
					<path class="st23" d="M205.2,125.4l-18.1,44.3c1.2,0.5,2.4,1,3.5,1.5c6.6,2.9,12.8,6.5,18.5,10.8c5.7,4.2,10.3,9.5,13.9,15.8
						c2.3,4.1,4.3,8.4,5.9,12.8c1.8,4.8,3.6,9.7,5.3,14.8c1.7,5.1,3.4,9.9,5,14.6c1.6,4.6,3.1,8.4,4.6,11.2c2.3,4.3,4.8,7.7,7.5,9.8
						c0.4,0.3,0.8,0.6,1.3,0.8l18.1-44.3c-0.5-0.2-0.9-0.5-1.3-0.8c-2.7-2.2-5.3-5.5-7.5-9.8c-1.5-2.8-3-6.5-4.6-11.2
						c-1.6-4.6-3.2-9.5-5-14.6c-1.7-5.1-3.5-10-5.3-14.8c-1.6-4.4-3.6-8.7-5.9-12.8c-3.6-6.4-8.1-11.6-13.9-15.8
						c-5.8-4.3-12-7.9-18.5-10.8C207.5,126.4,206.3,125.9,205.2,125.4"/>
					<path class="st22" d="M270.8,217.6l-18.1,44.3l0.3,0.1l18.1-44.3C270.9,217.6,270.9,217.6,270.8,217.6"/>
					<path class="st21" d="M271,217.6L253,262l0.2,0.1l18.1-44.3L271,217.6"/>
					<path class="st20" d="M271.2,217.7L253.2,262c0.1,0,0.1,0,0.2,0l18.1-44.3L271.2,217.7"/>
					<path class="st19" d="M271.4,217.7l-18.1,44.3l0.2,0l18.1-44.3L271.4,217.7"/>
					<path class="st18" d="M271.6,217.8l-18.1,44.3l0.1,0l18.1-44.3L271.6,217.8"/>
					<path class="st17" d="M271.7,217.8l-18.1,44.3l0.1,0l18.1-44.3L271.7,217.8"/>
					<path class="st16" d="M271.8,217.8l-18.1,44.3h0.1l18.1-44.3L271.8,217.8"/>
					<path class="st15" d="M272,217.8l-18.1,44.3h0.1l18.1-44.3H272"/>
					<path class="st14" d="M272.1,217.8L254,262.2h0.1l18.1-44.3H272.1"/>
					<path class="st13" d="M272.2,217.8l-18.1,44.3h0.1l18.1-44.3L272.2,217.8"/>
					<path class="st13" d="M272.4,217.8l-18.1,44.3h0.1l18.1-44.3H272.4"/>
					<path class="st12" d="M272.5,217.8l-18.1,44.3h0.1l18.1-44.3L272.5,217.8"/>
					<path class="st11" d="M272.7,217.8l-18.1,44.3l0.2,0l18.1-44.3L272.7,217.8"/>
					<path class="st10" d="M272.8,217.8l-18.1,44.3l0.2,0l18.1-44.3L272.8,217.8"/>
					<path class="st9" d="M273,217.8l-18.1,44.3l0.2,0l18.1-44.3L273,217.8"/>
					<path class="st34" d="M273.2,217.7l-18.1,44.3l0.2-0.1l18.1-44.3L273.2,217.7"/>
					<path class="st30" d="M273.4,217.7L255.3,262c0.1,0,0.1,0,0.2-0.1l18.1-44.3L273.4,217.7"/>
					<path class="st29" d="M273.6,217.6l-18.1,44.3c0.1,0,0.2-0.1,0.3-0.1l18.1-44.3C273.7,217.5,273.6,217.6,273.6,217.6"/>
					<path class="st28" d="M273.8,217.5l-18.1,44.3c0.1,0,0.2-0.1,0.3-0.1l18.1-44.3C274,217.4,273.9,217.5,273.8,217.5"/>
					<path class="st27" d="M274.1,217.4l-18.1,44.3c0.1-0.1,0.3-0.1,0.4-0.2l18.1-44.3C274.4,217.2,274.3,217.3,274.1,217.4"/>
					<path class="st25" d="M274.5,217.2l-18.1,44.3c0.2-0.1,0.4-0.3,0.6-0.4l18.1-44.3C274.9,216.9,274.7,217,274.5,217.2"/>
					<path class="st26" d="M275.1,216.7l-18.1,44.3c1.2-0.9,2.1-2.1,2.9-3.4c0.7-1.1,1.3-2.3,1.8-3.6l18.1-44.3
						c-0.5,1.2-1.1,2.4-1.8,3.6C277.3,214.7,276.3,215.8,275.1,216.7"/>
					<path class="st25" d="M279.8,209.8l-18.1,44.3l0.1-0.3l18.1-44.3C279.9,209.6,279.9,209.7,279.8,209.8"/>
				</g>
			</g>
		</g>
	</g>
	<g>
		<g>
			<defs>
				<path id="SVGID_00000109016001469506122440000004658437746465169593_" d="M128.3,121.5l35.1,122.3l-18.1,44.3l-35.1-122.3
					C115.7,152.5,122.9,134.8,128.3,121.5z"/>
			</defs>
			<clipPath id="SVGID_00000122717731578976399810000018386345305208649890_">
				<use xlink:href="#SVGID_00000109016001469506122440000004658437746465169593_"  style="overflow:visible;"/>
			</clipPath>
			<g style="clip-path:url(#SVGID_00000122717731578976399810000018386345305208649890_);">
				<g>
					<path class="st23" d="M128.3,121.5l-18.1,44.3l35.1,122.3l18.1-44.3L128.3,121.5"/>
				</g>
			</g>
		</g>
	</g>
	<g>
		<g>
			<defs>
				<path id="SVGID_00000100341545437151999730000002664839549973506719_" d="M103,208.8c8.5,9.2,18.5,16.9,29.5,22.9l-18.1,44.3
					c-11-6-20.9-13.7-29.5-22.9C90.4,239.8,97.6,222.1,103,208.8z"/>
			</defs>
			<clipPath id="SVGID_00000169532802863101502210000013349597883201661326_">
				<use xlink:href="#SVGID_00000100341545437151999730000002664839549973506719_"  style="overflow:visible;"/>
			</clipPath>
			<g style="clip-path:url(#SVGID_00000169532802863101502210000013349597883201661326_);">
				<g>
					<path class="st23" d="M103,208.8l-18.1,44.3c8.5,9.2,18.5,16.9,29.5,22.9l18.1-44.3C121.5,225.6,111.5,217.9,103,208.8"/>
				</g>
			</g>
		</g>
	</g>
	<g>
		<g>
			<defs>
				<path id="SVGID_00000170257937357456992710000018290396487520841407_" d="M104,212.1l-18.1,44.3c-0.3-1.1-0.6-2.2-0.9-3.3
					l18.1-44.3C103.3,209.9,103.6,211,104,212.1z"/>
			</defs>
			<clipPath id="SVGID_00000132770106240410030770000012047657043363545523_">
				<use xlink:href="#SVGID_00000170257937357456992710000018290396487520841407_"  style="overflow:visible;"/>
			</clipPath>
			<g style="clip-path:url(#SVGID_00000132770106240410030770000012047657043363545523_);">
				<g>
					<path class="st23" d="M104,212.1l-18.1,44.3l-0.9-3.3l18.1-44.3L104,212.1"/>
				</g>
			</g>
		</g>
	</g>
	<g>
		<g>
			<defs>
				<polygon id="SVGID_00000170978768233427032080000001087200402573341072_" points="199.3,248.2 200.7,253.1 182.7,297.4 
					181.2,292.5 				"/>
			</defs>
			<clipPath id="SVGID_00000067198779219474270230000001074507626851579800_">
				<use xlink:href="#SVGID_00000170978768233427032080000001087200402573341072_"  style="overflow:visible;"/>
			</clipPath>
			<g style="clip-path:url(#SVGID_00000067198779219474270230000001074507626851579800_);">
				<g>
					<path class="st23" d="M199.3,248.2l-18.1,44.3l1.4,4.9l18.1-44.3L199.3,248.2"/>
				</g>
			</g>
		</g>
	</g>
	<g>
		<g>
			<defs>
				<path id="SVGID_00000085946098664600184630000010400734126448439472_" d="M163.4,243.8c11.3,2.9,23,4.4,34.6,4.4h1.2l-18.1,44.3
					c-0.4,0-0.8,0-1.2,0c-11.7,0-23.3-1.5-34.6-4.4L163.4,243.8z"/>
			</defs>
			<clipPath id="SVGID_00000145027239792750271530000013731110776930767550_">
				<use xlink:href="#SVGID_00000085946098664600184630000010400734126448439472_"  style="overflow:visible;"/>
			</clipPath>
			<g style="clip-path:url(#SVGID_00000145027239792750271530000013731110776930767550_);">
				<g>
					<path class="st20" d="M163.4,243.8l-18.1,44.3c1.3,0.3,2.6,0.7,4,1l18.1-44.3C166.1,244.5,164.7,244.1,163.4,243.8"/>
					<path class="st19" d="M167.4,244.8l-18.1,44.3c1.9,0.4,3.7,0.8,5.6,1.1l18.1-44.3C171.1,245.6,169.2,245.2,167.4,244.8"/>
					<path class="st18" d="M173,245.9l-18.1,44.3c1.8,0.3,3.6,0.6,5.3,0.9l18.1-44.3C176.6,246.5,174.8,246.2,173,245.9"/>
					<path class="st17" d="M178.3,246.8l-18.1,44.3c1.7,0.2,3.4,0.5,5.2,0.6l18.1-44.3C181.8,247.2,180.1,247,178.3,246.8"/>
					<path class="st16" d="M183.5,247.4l-18.1,44.3c1.7,0.2,3.4,0.3,5,0.4l18.1-44.3C186.9,247.8,185.2,247.6,183.5,247.4"/>
					<path class="st15" d="M188.5,247.9l-18.1,44.3c1.6,0.1,3.3,0.2,4.9,0.3l18.1-44.3C191.8,248.1,190.2,248,188.5,247.9"/>
					<path class="st14" d="M193.5,248.1l-18.1,44.3c1.5,0.1,3.1,0.1,4.6,0.1h0.3l18.1-44.3h-0.3C196.5,248.2,195,248.2,193.5,248.1"
						/>
					<path class="st13" d="M198.3,248.2l-18.1,44.3h1l18.1-44.3L198.3,248.2"/>
				</g>
			</g>
		</g>
	</g>
	<path class="st23" d="M280.5,213.9c-0.1,0.2-0.2,0.5-0.3,0.7c-1.4,3.2-3.1,6.2-5.2,9c-0.5,0.7-1.1,1.4-1.6,2
		c-0.2,0.2-0.4,0.4-0.5,0.6c-0.4,0.4-0.7,0.8-1.1,1.2c-0.2,0.2-0.4,0.4-0.7,0.6c-0.3,0.3-0.7,0.6-1,0.9c-0.2,0.2-0.5,0.4-0.7,0.6
		c-0.4,0.3-0.7,0.6-1.1,0.9c-0.1,0.1-0.2,0.2-0.3,0.2c-0.5,0.4-1,0.7-1.5,1c-0.2,0.1-0.3,0.2-0.5,0.3c-0.4,0.2-0.8,0.4-1.2,0.6
		l-0.4,0.2c-0.5,0.2-1,0.4-1.5,0.6l-0.2,0.1c-0.5,0.2-1.1,0.3-1.6,0.4c-0.5,0.1-1.1,0.2-1.6,0.3h-0.1c-0.5,0.1-1,0.1-1.6,0.1
		c-0.4,0-0.8,0-1.2-0.1h-0.1c-0.4,0-0.8-0.1-1.1-0.1l-0.1,0c-0.4-0.1-0.7-0.1-1.1-0.2l-0.2,0c-0.4-0.1-0.7-0.2-1.1-0.3
		c-0.1,0-0.2-0.1-0.3-0.1c-0.2-0.1-0.5-0.2-0.7-0.3c-0.6-0.2-1.2-0.5-1.7-0.8l-0.3-0.2c-0.6-0.3-1.2-0.7-1.7-1.1
		c-3.9-2.8-7.5-7.2-10.7-12.9s-6.2-12.8-9.2-21c-3.5-9.8-7.1-19.8-10.7-29.8c-4-11-8.4-19.5-13.6-25.7c-5.1-6.2-10.4-10.9-15.8-13.8
		c-0.9-0.5-1.8-0.9-2.6-1.4l-0.7-0.3c-0.8-0.4-1.6-0.7-2.4-1l-0.2-0.1l-0.1,0c-0.8-0.3-1.6-0.6-2.4-0.9c-0.1,0-0.2-0.1-0.2-0.1
		c-0.2-0.1-0.5-0.1-0.7-0.2c-0.3-0.1-0.7-0.2-1-0.3c-0.1,0-0.2-0.1-0.3-0.1c-0.3-0.1-0.6-0.2-0.9-0.2l-0.6-0.1l-0.2,0
		c-0.5-0.1-1-0.2-1.4-0.3l-0.1,0l-0.3-0.1c-0.3-0.1-0.6-0.1-0.9-0.1l-0.8-0.1c-0.7-0.1-1.4-0.2-2-0.2c-0.4,0-0.7-0.1-1.1-0.1
		l-0.9-0.1c-1-0.1-2-0.2-3-0.3h-0.1h-0.1c-1-0.1-1.9-0.1-2.8-0.2h-0.4h-0.2c-0.9,0-1.7,0-2.5,0h-0.8l-4.2,0h-3.2l-4.7,0l-3.1,0
		c-1.7,0-3.4,0-5.1,0.1l-2.5,0c-2.5,0-5,0.1-7.4,0.1L112.2,161L73,24.3c-0.8,0.7-1.6,1.4-2.4,2.1c-0.3,0.2-0.5,0.5-0.8,0.7
		c-0.5,0.5-1,1-1.5,1.5c-0.3,0.3-0.6,0.6-0.8,0.9C67,30,66.6,30.5,66.1,31c-0.3,0.3-0.6,0.7-0.8,1c-0.4,0.5-0.8,0.9-1.1,1.4
		c-0.3,0.4-0.5,0.8-0.8,1.1c-0.3,0.5-0.7,1-1,1.4c-0.3,0.4-0.5,0.8-0.8,1.2c-0.3,0.5-0.6,1-0.9,1.5c-0.2,0.4-0.5,0.9-0.7,1.3
		c-0.3,0.5-0.6,1-0.8,1.5c-0.2,0.4-0.4,0.9-0.6,1.4s-0.4,0.9-0.6,1.4c-0.1,0.1-0.1,0.3-0.2,0.4l-1.1,2.6l-0.9-3.2L37.7,88.5l0.9,3.3
		l2-4.9c0.2-0.3,0.3-0.7,0.4-1c0.3-0.5,0.5-1,0.8-1.5c0.2-0.4,0.5-0.9,0.7-1.3c0.3-0.5,0.6-1,0.9-1.5c0.3-0.4,0.5-0.8,0.8-1.2
		c0.3-0.5,0.7-1,1-1.4c0.3-0.4,0.5-0.8,0.8-1.1c0.4-0.5,0.7-0.9,1.1-1.4c0.3-0.4,0.6-0.7,0.9-1.1c0.4-0.5,0.8-0.9,1.3-1.4
		c0.3-0.3,0.6-0.6,0.9-0.9c0.5-0.5,1-1,1.5-1.5c0.3-0.2,0.5-0.5,0.8-0.7c0.8-0.7,1.6-1.4,2.4-2.1c14.8,51.6,29.6,103.1,44.4,154.7
		l-13.4,33c0.8,0.9,1.6,1.7,2.4,2.6c0.3,0.3,0.6,0.6,0.8,0.9c0.5,0.6,1.1,1.1,1.6,1.6c0.3,0.3,0.7,0.6,1,1c0.5,0.5,1,1,1.5,1.5
		c0.4,0.3,0.7,0.7,1.1,1c0.5,0.4,1,0.9,1.5,1.3c0.4,0.3,0.8,0.7,1.2,1c0.5,0.4,1,0.8,1.5,1.2c0.4,0.3,0.8,0.7,1.2,1
		c0.5,0.4,1,0.8,1.5,1.2c0.4,0.3,0.9,0.6,1.3,1c0.5,0.4,1,0.7,1.5,1.1c0.4,0.3,0.9,0.6,1.3,0.9c0.5,0.4,1,0.7,1.5,1.1
		c0.4,0.3,0.9,0.6,1.3,0.9c0.5,0.3,1,0.7,1.5,1c0.5,0.3,0.9,0.6,1.4,0.9s1,0.6,1.5,0.9c0.5,0.3,0.9,0.6,1.4,0.8
		c0.5,0.3,1,0.6,1.5,0.9c0.5,0.3,1,0.5,1.4,0.8c0.5,0.3,1,0.6,1.5,0.9c0.5,0.3,1,0.5,1.5,0.8c0.5,0.3,1,0.5,1.6,0.8s1,0.5,1.5,0.7
		c0.5,0.2,1,0.5,1.6,0.8s1,0.5,1.5,0.7s1.1,0.5,1.6,0.7c0.5,0.2,1,0.4,1.5,0.6s1.1,0.5,1.6,0.7l0.4,0.2c0.2,0.1,0.5,0.2,0.7,0.3
		c0.9,0.3,1.7,0.7,2.6,1l1.2,0.4c1,0.3,1.9,0.7,2.9,1l0.6,0.2l0.2,0.1c0.7,0.2,1.3,0.4,2,0.6c0.4,0.1,0.9,0.3,1.3,0.4
		c0.7,0.2,1.5,0.4,2.2,0.6c0.3,0.1,0.7,0.2,1,0.3h0c1.8,0.5,3.6,0.9,5.4,1.4c0.1,0,0.3,0.1,0.4,0.1l0.2,0c1.6,0.4,3.2,0.7,4.8,1
		c0.2,0,0.3,0.1,0.5,0.1s0.3,0.1,0.5,0.1c1.5,0.3,3,0.5,4.6,0.7l0.1,0l0.4,0c1.3,0.2,2.7,0.4,4,0.5c0.2,0,0.4,0.1,0.6,0.1
		c0.1,0,0.3,0,0.4,0c1.4,0.1,2.8,0.3,4.3,0.4l0.2,0c0.2,0,0.3,0,0.5,0c1.2,0.1,2.4,0.1,3.6,0.2c0.2,0,0.4,0,0.6,0h0.5
		c1.3,0,2.7,0.1,4,0.1h0.3h0.9l18.1-44.3h-1.2c-1.3,0-2.6,0-4-0.1l-1.1,0c-1.2,0-2.4-0.1-3.7-0.2l-0.7,0c-1.4-0.1-2.8-0.2-4.3-0.4
		l-1-0.1c-1.3-0.2-2.7-0.3-4-0.5c-0.2,0-0.3,0-0.5-0.1c-1.5-0.2-3-0.5-4.6-0.7l-1-0.2c-1.6-0.3-3.2-0.6-4.8-1l-0.7-0.2
		c-1.8-0.4-3.6-0.9-5.4-1.3c-0.4-0.1-0.7-0.2-1-0.3c-0.7-0.2-1.5-0.4-2.2-0.6c-0.4-0.1-0.9-0.3-1.3-0.4c-0.7-0.2-1.3-0.4-2-0.6
		c-0.3-0.1-0.6-0.2-0.8-0.3c-1-0.3-1.9-0.7-2.9-1c-0.4-0.1-0.8-0.3-1.2-0.4c-0.9-0.3-1.8-0.7-2.6-1c-0.4-0.2-0.8-0.3-1.2-0.5
		c-0.5-0.2-1.1-0.5-1.6-0.7c-0.5-0.2-1-0.4-1.5-0.6c-0.5-0.2-1.1-0.5-1.6-0.7s-1-0.4-1.5-0.7c-0.5-0.2-1.1-0.5-1.6-0.8
		c-0.5-0.3-1-0.5-1.5-0.7c-0.5-0.2-1-0.5-1.6-0.8s-1-0.5-1.4-0.8c-0.5-0.3-1-0.6-1.6-0.9c-0.5-0.3-1-0.5-1.4-0.8
		c-0.5-0.3-1-0.6-1.5-0.9l-0.7-0.4l1.2-2.8c-6.3-22-12.6-43.9-18.9-65.9c1.4,0,2.7,0,4.1-0.1l2.9,0l4.8-0.1c1.1,0,2.1,0,3.2,0l4.5,0
		h3.5c1.6,0,3.1,0,4.7,0c0.9,0,1.8,0,2.7,0.1l0.4,0c0.9,0,1.8,0.1,2.8,0.2h0.1c1,0.1,2,0.2,3,0.3l0.9,0.1c1,0.1,2.1,0.2,3.1,0.3
		c0.6,0.1,1.1,0.2,1.7,0.3c0.1,0,0.2,0,0.3,0.1c0.6,0.1,1.1,0.2,1.7,0.4c0.2,0,0.4,0.1,0.6,0.1c0.4,0.1,0.8,0.2,1.2,0.3
		c0.3,0.1,0.7,0.2,1,0.3s0.6,0.2,0.9,0.3c0.8,0.3,1.6,0.6,2.4,0.9c0.1,0,0.2,0.1,0.3,0.1c0.8,0.3,1.6,0.7,2.4,1
		c0.2,0.1,0.5,0.2,0.7,0.3c0.9,0.4,1.8,0.9,2.6,1.4c5.4,3,10.7,7.7,15.8,13.8c5.1,6.2,9.6,14.7,13.6,25.7c3.6,10,7.1,19.9,10.7,29.8
		c3,8.2,6,15.2,9.2,21c3.1,5.7,6.8,10.1,10.7,12.9c0.6,0.4,1.1,0.8,1.7,1.1l0.3,0.2c0.6,0.3,1.1,0.6,1.7,0.8c0,0,0.1,0,0.1,0.1
		c0.2,0.1,0.4,0.1,0.5,0.2c0.1,0,0.2,0.1,0.3,0.1l0.1,0c0.3,0.1,0.5,0.2,0.8,0.2l0.2,0l0.2,0c0.1,0,0.2,0.1,0.3,0.1
		c0.2,0,0.4,0.1,0.6,0.1l0.1,0l0.1,0l0.3,0.1c0.2,0,0.4,0.1,0.6,0.1l0.3,0h0.1h0.2c0.2,0,0.4,0,0.5,0c0.2,0,0.3,0,0.5,0h0
		c0.2,0,0.4,0,0.5,0c0.2,0,0.4,0,0.6,0c0.1,0,0.3,0,0.4,0h0.1h0.1c0.2,0,0.4-0.1,0.6-0.1c0.2,0,0.4-0.1,0.7-0.1l0.2,0
		c0.2,0,0.3-0.1,0.5-0.1c0.2-0.1,0.5-0.1,0.7-0.2c0.2,0,0.3-0.1,0.5-0.1l0.2-0.1l0.2-0.1c0.3-0.1,0.6-0.2,0.9-0.4
		c0.1-0.1,0.2-0.1,0.4-0.2l0.4-0.2c0.1-0.1,0.3-0.1,0.4-0.2c0.3-0.1,0.5-0.3,0.8-0.4c0.2-0.1,0.3-0.2,0.5-0.3c0.1,0,0.1-0.1,0.2-0.1
		c0.4-0.3,0.9-0.6,1.3-0.9l0.3-0.2c0.2-0.1,0.3-0.2,0.5-0.4s0.4-0.3,0.6-0.5c0.2-0.2,0.5-0.4,0.7-0.6c0.3-0.3,0.7-0.6,1-0.9
		c0.2-0.2,0.4-0.4,0.7-0.6c0.4-0.4,0.7-0.8,1.1-1.2c0.2-0.2,0.4-0.4,0.6-0.6c0.5-0.6,1.1-1.3,1.6-2c2.1-2.8,3.8-5.8,5.2-9l0.1-0.3
		c0.1-0.1,0.1-0.3,0.2-0.4l0,0L280.5,213.9z"/>
	<path class="st47" d="M283,196c0.5,0,1,0,1.5-0.1c-0.1,1.4-0.3,3-0.5,4.8c-0.3,2.1-0.7,4.1-1.2,6.2c-0.6,2.6-1.5,5.2-2.6,7.7
		c-1.4,3.2-3.1,6.2-5.2,9c-4.5,5.9-9.4,9.2-13.9,10.1c-1.1,0.2-2.1,0.3-3.2,0.3c-3.4,0-6.7-1.1-9.6-3.3c-3.9-2.8-7.5-7.2-10.7-12.9
		c-3.2-5.7-6.2-12.8-9.2-21c-3.5-9.8-7.1-19.8-10.7-29.8c-4-11-8.4-19.5-13.6-25.7c-5.1-6.2-10.4-10.9-15.8-13.8
		c-5.4-3-10.7-4.8-15.8-5.5c-4.4-0.6-8.7-0.9-13.1-0.9c-10.7,0-21.2,0.1-31,0.3l35.1,122.3c11.3,2.9,23,4.4,34.6,4.4h1.2l1.4,4.9
		h-1.2c-34,0-70.6-13.4-95.6-41.1l-0.9-3.3c8.5,9.2,18.5,16.9,29.5,22.9L73,24.3c-7.4,6-13,13.7-16.3,23.1l-0.9-3.3
		C61.1,27.4,73.5,15.9,90,9.3c2.1-0.8,4.2-1.6,6.4-2.4s4.4-1.6,6.6-2.3c2.3-0.5,4.6-1,7-1.5c2.4-0.5,4.8-0.8,7.3-1
		c2.4-0.2,4.7-0.3,7.1-0.3c9.3,0,18.5,1.5,27.4,4.2c10.5,3.2,21.2,10.1,31.7,19.7c9.4,8.4,16.5,16.8,21.5,24.8s8.2,14.9,10,20.8
		c0.9,3,1.4,6.7,1.7,11.1c0.3,4.5-0.7,8.8-2.9,13.3c-2.2,4.6-6.2,8.8-12.2,12.9c-5.9,4.1-14.9,7-26.9,8.5l0.2,0.7
		c3.6,0.5,8.5,1.4,14.7,2.8s12.7,3.5,19.3,6.4c6.6,2.9,12.8,6.5,18.5,10.8c5.7,4.2,10.3,9.5,13.9,15.8c2.3,4.1,4.3,8.4,5.9,12.8
		c1.8,4.8,3.6,9.7,5.3,14.8s3.4,9.9,5,14.6c1.6,4.6,3.1,8.4,4.6,11.2c2.3,4.3,4.8,7.7,7.5,9.8c0.8,0.7,1.8,1.1,2.8,1.1
		c1.9,0,3.9-1.5,5.8-4.5c1.2-2,2.4-4.6,3.2-7.7C282.2,202.5,282.7,199.3,283,196z M155.4,116.3c5.9,0,11.2-0.8,15.7-2.4
		s7.9-4.3,10.3-8.3c2.4-3.9,3.6-9.2,3.5-15.8c0-6.7-1.5-15.1-4.5-25.5c-3.4-11.7-7.6-21.4-12.6-29.1c-5-7.7-10.5-13.8-16.4-18.2
		s-11.8-7.3-17.9-8.7c-4.1-0.9-8.3-1.4-12.5-1.5c-1.5,0-3.1,0.1-4.6,0.2c-3.7,0.4-7.3,1-10.9,1.8c-3,0.7-5.9,1.7-8.6,3.1l30.1,104.7
		C136,116.5,145.6,116.3,155.4,116.3"/>
</g>
</svg>
